<?xml version="1.0" encoding="UTF-8"?><svg id="a" xmlns="http://www.w3.org/2000/svg" viewBox="0 0 50 50"><path d="M24.8,2.4c-11-.4-9,7.9-9,7.9h4.4c0-2.1,1.1-3.8,4.5-3.8s4.6,1.3,4.5,3.5c0,3.7-2.6,3.5-6.7,5-7.5,1.8-6.9,5.9-6.9,8.5,0,8.3,6.3,8.1,9.5,8,8,.5,8.7-4.7,8.7-4.7V7.5c-.6-3.3-3.5-5.2-9-5.1Zm4.5,22.8s-.5,2.3-4.6,2.3-4.4-1.7-4.4-3.7,.5-3.3,4.4-4.4c2.4-.7,4.5-1.6,4.6-2.2v8Z" style="fill:#0e2e5a;"/><g><path d="M3.4,46.2s0,0,0,0v-9.7s0,0,0,0h2.2s0,0,0,0v7.6s0,0,0,0h3.6s0,0,0,0v2s0,0,0,0H3.4Z" style="fill:#0e2e5a;"/><path d="M9.9,46.2s0,0,0,0l4.8-10s0,0,0,0h0s0,0,0,0l4.7,10s0,0,0,0h-2.3s0,0,0,0l-.6-1.3s0,0,0,0h-3.8s0,0,0,0l-.6,1.3s0,0,0,0h-2.2Zm3.5-3.2s0,0,0,0h2.4s0,0,0,0l-1.2-3s0,0,0,0l-1.2,3Z" style="fill:#0e2e5a;"/><path d="M21.4,46.2s0,0,0,0v-7.6s0,0,0,0h-2.9s0,0,0,0v-1.9s0,0,0,0h8.2s0,0,0,0v1.9s0,0,0,0h-2.9s0,0,0,0v7.6s0,0,0,0h-2.2Z" style="fill:#0e2e5a;"/><path d="M25.3,46.2s0,0,0,0l4.8-10s0,0,0,0h0s0,0,0,0l4.7,10s0,0,0,0h-2.3s0,0,0,0l-.6-1.3s0,0,0,0h-3.8s0,0,0,0l-.6,1.3s0,0,0,0h-2.2Zm3.5-3.2s0,0,0,0h2.4s0,0,0,0l-1.2-3s0,0,0,0l-1.2,3Z" style="fill:#0e2e5a;"/><path d="M35,46.2s0,0,0,0l2-10s0,0,0,0h0s0,0,0,0l3.6,6.3s0,0,0,0l3.4-6.3s0,0,0,0h0s0,0,0,0l2,10s0,0,0,0h-2.1s0,0,0,0l-.8-4.4s0,0,0,0l-2.5,4.7s0,0,0,0h0s0,0,0,0l-2.7-4.8s0,0,0,0l-.8,4.4s0,0,0,0h-1.9Z" style="fill:#0e2e5a;"/></g><rect width="50" height="50" style="fill:none;"/></svg>