<?xml version="1.0" encoding="utf-8"?>
<!-- Generator: Adobe Illustrator 26.3.1, SVG Export Plug-In . SVG Version: 6.00 Build 0)  -->
<svg version="1.1" id="a" fill="#464646" xmlns="http://www.w3.org/2000/svg" xmlns:xlink="http://www.w3.org/1999/xlink" x="0px" y="0px"
	 viewBox="0 0 45.9 22.3" style="enable-background:new 0 0 45.9 22.3;" xml:space="preserve">
<path d="M22.5,14c0.2,0.3,0,0.5-0.2,0.6c-0.4,0-0.8,0.2-1.2,0c-0.1,0-0.3-0.1-0.4-0.2c-0.3-0.2-0.6-0.2-0.8,0
	c-0.2,0.2-0.4,0.4-0.7,0.5c-0.3,0-0.6,0-0.8-0.3c-0.5-0.5-0.7-0.6-1.2,0c0,0-0.2,0.2-0.3,0.3c-0.2,0.2-0.5,0.3-0.8,0.1
	c-0.3-0.1-0.5-0.1-0.8,0s-0.7,0.1-1,0c-0.6-0.3-0.6-0.3-1,0.2c-0.2,0.3-0.5,0.3-0.7,0.1c0,0-0.1-0.1-0.2-0.2c-0.3-0.3-0.4-0.3-0.6,0
	c0,0-0.2,0.2-0.3,0.2c-0.2,0-0.3-0.1-0.3-0.3c0,0,0-0.2,0-0.3c0.1,0,0.2,0,0.4,0s0.4-0.2,0.5-0.4c0.1-0.3,0.3-0.6,0.5-0.9
	c0-0.1,0.2-0.3,0-0.4l0,0c0-0.3,0.3-0.3,0.5-0.5c0,0,0.3,0,0.4,0c0,0,0,0.1,0,0.2c0,0.2-0.1,0.4-0.2,0.5c0,0.2-0.2,0.4-0.3,0.6
	c-0.1,0.2-0.2,0.4,0,0.5c0.1,0.1,0.6,0,0.7,0c0-0.1,0.2-0.3,0.2-0.4c0-0.1,0-0.3,0.1-0.4c0.2-0.3,0.3-0.6,0.3-1c0-0.2,0-0.4,0.2-0.5
	c0-0.1,0.3-0.2,0.4,0c0,0,0,0.2,0,0.3c0,0,0,0,0,0.1c0,0.5-0.2,0.8-0.3,1.3c0,0.2,0,0.4,0,0.6c0,0,0,0.1,0.1,0.2
	c0.5,0.3,1.3,0,1.4-0.6c0-0.3,0-0.6,0.2-0.8c0-0.3,0.3-0.5,0.4-0.8c0-0.2,0.1-0.4,0.1-0.6c0-0.3,0-0.5,0.3-0.7
	c0.2-0.1,0.2-0.3,0.2-0.5s0.1-0.5,0.2-0.7c0-0.1,0-0.2,0.1-0.3V9.3c0.2-0.2,0.3-0.4,0.2-0.7c0-0.1,0-0.3,0.1-0.5
	c0-0.2,0.2-0.3,0.2-0.5c0,0,0-0.2,0-0.3c-0.1-0.2,0-0.4,0-0.6c0.1-0.2,0.2-0.3,0.3-0.5c0,0,0.2-0.1,0.3-0.2C18.9,6,19,6,19,6.3
	s-0.2,0.7-0.3,1c0,0.1,0,0.3,0,0.4c0,0.5,0,1-0.3,1.5c-0.1,0.3-0.1,0.7-0.2,1c0,0.3-0.1,0.6-0.3,0.9c-0.2,0.3-0.2,0.6-0.3,0.9
	c-0.2,0.4-0.3,0.8-0.5,1.1c-0.1,0.2-0.3,0.5-0.4,0.7c0,0.1,0,0.3,0,0.4l0.2,0.2c0.2,0,0.5,0,0.6-0.2c0.2-0.2,0.2-0.5,0.5-0.6
	c0,0,0,0,0-0.1c0-0.2,0-0.2,0.2-0.4c0.2-0.1,0.3-0.3,0.3-0.5c0.1-0.3,0.2-0.6,0.3-0.9c0-0.3,0.3-0.3,0.5-0.4c0.2,0,0.4,0,0.5,0.2
	c0,0.1,0,0.4,0,0.5c0,0.3-0.3,0.5-0.3,0.8c0,0.2-0.2,0.3-0.4,0.3c-0.2,0-0.4,0-0.4,0.3s0,0.5,0,0.8c0,0.2,0.6,0.4,0.9,0.3
	c0.5-0.2,0.9-0.4,1-1c0-0.1,0.1-0.2,0.2-0.3c0.2-0.2,0.4-0.4,0.2-0.7c0-0.2,0.2-0.3,0.3-0.4c0.5-0.2,1-0.4,1.5-0.3
	c0.2,0,0.5,0,0.7,0.3c0,0,0.1,0.1,0.1,0.2c0,0.2,0.2,0.3,0.4,0.4c0.5,0,0.8-0.1,1-0.5c0-0.1,0.1-0.3,0.2-0.4
	c0.2-0.2,0.4-0.3,0.7-0.3h0.2c0.2,0,0.3,0,0.3-0.3c0-0.2,0-0.4,0-0.5c0-0.3,0-0.5,0.2-0.7c0-0.1,0-0.3,0-0.5c0-0.5,0.2-0.9,0.4-1.3
	c0.3-0.6,0.5-1.1,0.8-1.7c0,0,0,0,0-0.1C27.8,6.1,28,6,28.2,6c-0.3-0.4,0.1-0.6,0.3-0.9c0-0.2,0.1-0.3,0.2-0.4
	c0.3-0.3,0.5-0.6,0.8-0.8c0.2-0.2,0.7,0,0.8,0.1c0,0,0,0.2,0,0.3h-0.2c-0.3,0-0.6,0-0.7,0.3S29,5.2,28.7,5.4h-0.1
	c0,0.5-0.5,0.8-0.6,1.3c0,0.3-0.3,0.6-0.4,0.9c0,0-0.1,0.2-0.1,0.3c0,0.4-0.2,0.6-0.3,0.9c0,0.2,0,0.4-0.1,0.6
	c0,0.2-0.1,0.4-0.2,0.6c0,0,0,0.2,0,0.3c0,0.4-0.2,0.8-0.2,1.3s0,0.9,0,1.4s0.4,0.5,0.8,0.3c0,0.2-0.1,0.4-0.3,0.5
	c-0.2,0.2-0.2,0.4,0,0.5c0.2,0,0.4,0,0.7,0c0,0,0.2,0,0.3,0c0.2,0,0.3,0,0.3-0.2c0,0,0.1-0.2,0.2-0.3c0.4-0.3,0.8-0.6,0.9-1.1
	c0-0.3,0.3-0.7,0.3-1c0-0.2,0-0.3-0.2-0.4c-0.2,0-0.3,0-0.4,0.1c-0.3,0.4-0.6,0.7-0.8,1.1c-0.2,0.2-0.4,0.5-0.6,0.7c0,0-0.2,0-0.3,0
	c0,0,0-0.2,0-0.3c0.1-0.2,0.3-0.4,0.4-0.6c0.3-0.5,0.7-0.9,1-1.4c0.2-0.2,0.3-0.5,0.4-0.8c0-0.2,0.2-0.3,0.2-0.5c0,0,0-0.1,0-0.2
	c0-0.4,0.2-0.8,0.3-1.2c0-0.3,0.1-0.6,0.2-0.9c0-0.4,0.2-0.8,0.2-1.1c0-0.2,0-0.5,0-0.7c0-0.1,0.1-0.3,0.2-0.3
	c0.2,0,0.2,0.2,0.1,0.3c-0.2,0.6-0.1,1.2-0.2,1.9c0,0.2,0,0.4-0.1,0.5c-0.1,0.5-0.2,1.1-0.4,1.6c0,0.3-0.3,0.6-0.4,0.8
	c-0.2,0.2-0.2,0.4,0,0.6c0.2,0.1,0.3,0,0.4,0s0.3-0.1,0.5,0c0.2,0,0.1,0.3,0,0.4c0,0.3-0.1,0.5-0.2,0.8c0,0.2-0.2,0.5-0.3,0.7
	c0,0.2,0,0.4,0,0.5c0.2,0.2,0.4,0.2,0.6,0c0.2-0.1,0.4-0.3,0.6-0.4c0.2-0.1,0.3-0.3,0.3-0.5s0-0.3,0-0.5c0-0.3,0-0.6,0.2-0.8
	c0,0,0.2-0.2,0.3-0.2s0.2,0.2,0.3,0.3c0,0.1,0,0.3,0,0.4c0,0.4-0.2,0.9-0.2,1.3c0,0.2,0,0.4,0.2,0.4s0.4,0,0.6,0
	c0,0,0.1-0.1,0.1-0.2c0-0.5,0.3-0.8,0.7-1.2c0.2-0.2,0.4-0.4,0.6-0.6c0,0,0.1,0,0.2,0c0.3,0,0.6-0.1,0.9-0.1c0.3,0,0.4-0.2,0.3-0.5
	c-0.1-0.5,0-0.9,0.3-1.2c0,0,0.3-0.1,0.4,0c0,0,0.2,0.2,0.1,0.4c0,0.5-0.1,0.9-0.2,1.4c0,0.3-0.1,0.5-0.2,0.8c0,0.4,0.2,0.7,0.6,0.7
	c0.6,0,1.2,0,1.9,0c0.2,0,0.3,0,0.5,0s0.3-0.2,0.2-0.4c0,0,0-0.2,0-0.3s0-0.3,0-0.4c0-0.1,0-0.2,0-0.4c0-0.4,0-0.8-0.2-1.1
	c0,0,0-0.1,0-0.2c0.1-0.5,0-0.9,0-1.4c0-0.3,0-0.6,0-1c0-0.5,0.3-1,0.6-1.4C39.7,6,39.8,5.7,40,5.5c0.2-0.3,0.4-0.6,0.6-0.9l0,0
	c0.3-0.1,0.5-0.3,0.8-0.4l0,0c0,0.2,0,0.3-0.2,0.4c-0.3,0.4-0.7,0.7-1,1.1c-0.2,0.2-0.3,0.5-0.4,0.7c-0.1,0.3-0.3,0.7-0.4,1
	c-0.2,0.6-0.2,1.3-0.1,2c0,0.4,0.2,0.8,0.3,1.1c0,0.5,0.2,1,0.2,1.5c0,0.4,0.3,0.5,0.7,0.4c0.5-0.2,1-0.3,1.5-0.4
	c0.6-0.2,1.1-0.4,1.6-0.7c0.3-0.2,0.6-0.3,0.9-0.4c0.3-0.1,0.3-0.4,0.5-0.6c0-0.1,0.1-0.3,0.2-0.4c0.4-0.7,0.3-1.5,0-2.3
	c0,0,0-0.1,0-0.2c0-0.4-0.2-0.6-0.4-0.9s-0.3-0.6-0.5-0.9c-0.4-0.5-0.8-0.9-1.4-1.1c-0.2,0-0.5-0.2-0.7-0.3c-0.1,0-0.2,0-0.3,0
	c0,0-0.1,0-0.2,0c-0.1,0-0.3-0.1-0.3-0.2c0-0.2,0.2-0.2,0.3-0.2c0.5,0,1.1,0,1.6,0.2c0.4,0.2,0.6,0.5,1,0.8c0.6,0.4,0.9,1.1,1.1,1.7
	c0.2,0.5,0.4,1,0.4,1.5c0,0.7-0.1,1.3-0.2,1.9c0,0.2-0.2,0.5-0.4,0.7c-0.3,0.5-0.8,0.7-1.2,1s-0.9,0.5-1.4,0.8
	c-0.2,0.1-0.5,0.2-0.7,0.2c-0.6,0.1-1.1,0.3-1.7,0.4c-0.4,0-0.6,0.4-0.4,0.9c0,0.2,0.2,0.4,0.2,0.5c0,0.4,0.1,0.7,0.3,1.1
	c0.1,0.3,0,0.7-0.4,0.8c-0.5,0.1-1,0.3-1.6,0.2c-0.2,0-0.3,0-0.5-0.2c-0.2,0-0.4-0.2-0.7-0.2c-0.6-0.2-1.1-0.5-1.6-0.9
	c-0.1,0-0.3-0.2-0.4-0.3c-0.4-0.2-0.8-0.3-1.2,0c-0.1,0-0.3,0.1-0.5,0.2c-0.3,0-0.4,0-0.5-0.3c0-0.2-0.2-0.2-0.4-0.3
	c-0.1,0-0.3,0-0.4,0c-0.2,0-0.5,0-0.7-0.3c-0.2-0.1-0.4,0-0.5,0c-0.1,0.1-0.3,0.3-0.5,0.4c-0.3,0.2-0.5,0-0.7-0.1c0,0-0.1,0-0.2-0.1
	c-0.3-0.2-0.4-0.2-0.7,0.1c-0.1,0.1-0.3,0.3-0.4,0.5c-0.3,0.3-1.2,0.4-1.6,0.2c-0.2-0.1-0.4-0.2-0.6-0.3c0,0-0.2,0-0.3,0
	c-0.3,0.3-0.7,0.5-1.2,0.5c-0.4,0-0.8-0.2-0.9-0.5s-0.1-0.7,0-1v-0.3c0,0-0.2,0-0.4-0.1c0,0-0.1,0-0.1,0.1c0,0.3-0.2,0.5-0.4,0.7
	c0,0.1-0.3,0.1-0.4,0.2c0,0-0.2,0-0.3,0v-0.2c0.2-0.2,0.3-0.3,0.5-0.5c0-0.1,0.3-0.3,0.1-0.4c-0.1-0.2-0.2-0.3-0.2-0.5
	c0,0-0.1-0.1-0.2-0.1c0,0-0.2,0-0.3,0H22c0,0,0,0.1,0,0.2c0,0,0.1,0,0.1,0.1c0,0,0,0.1,0,0.2c0,0-0.1,0-0.2,0c-0.2,0-0.3,0-0.5,0
	s-0.4,0-0.5,0.2c-0.2,0.3-0.3,0.5-0.5,0.8c0,0.2,0,0.4,0.1,0.4c0.5,0.1,0.9,0.2,1.4,0L22.5,14z M38.9,15.3c0.2,0,0.4,0,0.5-0.2
	c0.2-0.4,0.1-0.9,0-1.3c0-0.2-0.1-0.4-0.2-0.6c0-0.2,0-0.4-0.3-0.4s-0.6-0.1-0.8,0c-0.5,0-1,0.2-1.5,0.2c-0.1,0-0.3,0-0.4,0
	c-0.2,0-0.5,0-0.7,0c-0.3,0-0.3,0.4-0.6,0.6v0.2c0,0,0.2,0,0.2,0.1c0.8,0.5,1.6,0.9,2.5,1.2c0.3,0.1,0.7,0.2,1.1,0.3L38.9,15.3z
	 M24.8,14.3c0.5,0,0.9-0.2,1.3-0.5l0.1-0.2c0-0.2-0.1-0.5-0.2-0.7c0-0.2-0.1-0.4,0-0.6c0.1-0.1,0.1-0.3,0-0.4
	c-0.4-0.3-0.8,0-0.9,0.3v0.1c-0.2,0.2-0.4,0.4-0.6,0.6c0,0,0,0.1,0,0.2c0,0.2,0,0.4,0,0.5c-0.1,0.3,0,0.6,0.5,0.6L24.8,14.3z
	 M35.4,12.2c0-0.3-0.1-0.5-0.3-0.6c-0.2,0-0.6,0-0.7,0.1c-0.2,0.3-0.5,0.5-0.7,0.8c-0.2,0.2-0.3,0.5-0.3,0.7c0,0.4,0.3,0.6,0.6,0.4
	c0.3-0.2,0.6,0,0.7-0.5l0,0c0.5-0.1,0.4-0.7,0.6-0.9H35.4z"/>
<path d="M8,13.6c-0.4,0-0.9,0-1.3,0.1c-1,0.2-2,0.1-3,0c-0.6,0-1.3-0.2-1.9-0.4c-0.5-0.2-0.8-0.6-1.2-0.9c0,0,0-0.1-0.1-0.2
	c0-0.2-0.2-0.4-0.3-0.6v-0.2c0-0.4-0.1-0.7-0.1-1.1c0-0.2,0-0.3,0-0.5s0-0.4,0.1-0.5c0-0.2,0-0.5,0.2-0.7c0,0,0,0,0-0.1
	c0-0.3,0.2-0.7,0.3-1c0-0.3,0-0.7,0.4-0.9c0,0,0,0,0-0.1c0-0.3,0.1-0.5,0.3-0.7c0.2-0.3,0.4-0.7,0.6-1c0.1-0.2,0.3-0.4,0.5-0.5
	C2.7,4.1,2.8,3.9,3,3.7l0,0c0.2-0.1,0.4-0.2,0.6-0.4C4,3,4.5,2.8,5.1,2.6c0.5-0.1,1.1-0.2,1.6-0.3c0.3,0,0.6,0,0.9,0
	c0.5,0.1,0.9,0.3,1.3,0.5c0.1,0,0.2,0,0.4,0c0,0,0.1,0,0.2,0c0.2-0.3,0.5-0.5,0.9-0.7c0.3-0.1,0.5-0.4,0.7-0.5
	c0.2-0.2,0.4-0.3,0.7-0.5c0,0,0.1-0.1,0.2-0.1c0.2-0.1,0.5-0.2,0.7-0.4c0.2-0.1,0.4-0.3,0.7-0.3c0.4-0.1,0.9,0,0.7,0.6
	c0,0.2-0.1,0.4-0.2,0.5c0,0.1,0,0.2-0.1,0.3c0,0.6-0.2,1.2-0.6,1.7c0,0.1-0.1,0.3-0.1,0.4c0,0.3,0,0.6-0.2,0.8
	c-0.1,0.3-0.2,0.6-0.4,0.8C12.3,6,12,6.5,11.8,7.1c0,0.2-0.2,0.3-0.2,0.4s0,0.3,0.1,0.4C12,8,12.3,8.2,12.5,8.3
	c0.6,0.2,1,0.5,1.3,1.1c0,0.1,0.1,0.3,0.2,0.4c0.2,0.5,0,0.9-0.2,1.3c-0.2,0.5-0.6,0.7-1,1c-0.1,0.1-0.3,0.3-0.4,0.4
	c-0.4,0.4-0.9,0.5-1.3,0.7c-0.4,0.2-0.8,0.3-1.3,0.4c-0.5,0.1-0.6,0.3-0.7,0.8c0,0.4-0.1,0.8-0.2,1.2l0,0c-0.2,0.3-0.2,0.7-0.2,1
	s-0.2,0.6-0.2,0.8c-0.1,0.8,0,1.7,0.2,2.5c0.2,0.6,0.4,1.1,0.9,1.5c0.2,0.2,0.4,0.4,0.7,0.6s0.6,0.1,0.9,0c0,0,0.1,0,0.2-0.1
	c0-0.2,0.3-0.3,0.5-0.4c0,0,0.1,0,0.2,0c0,0,0,0.1,0,0.2c0,0.2-0.1,0.3-0.3,0.3c-0.1,0-0.3,0.1-0.4,0.3c-0.3,0.4-1,0.5-1.4,0.2
	c-0.1-0.1-0.3-0.2-0.5-0.3c-0.4-0.2-0.6-0.6-0.9-0.9c-0.3-0.4-0.3-0.8-0.5-1.3l0,0c-0.3-0.6-0.3-1.3-0.3-2c0-0.3,0-0.6,0.2-0.9v-0.2
	c0-0.2,0-0.4,0-0.7c0-0.3,0-0.6,0.1-0.9c0-0.3,0.2-0.5,0.3-0.7c0.2-0.3,0.2-0.4-0.2-0.5c-0.1,0-0.3,0-0.4,0l0,0L8,13.6z M6.6,2.6
	c-0.4,0-0.9,0.1-1.3,0.2C5,2.8,4.7,3,4.4,3.1c-0.5,0.3-1,0.6-1.3,1.1C2.7,4.7,2.2,5.1,2,5.7C1.9,6.1,1.7,6.4,1.5,6.8
	c-0.1,0.3-0.3,0.6-0.4,1c0,0.3-0.3,0.6-0.3,1c0,0.1,0,0.2,0,0.3c0,0.3-0.2,0.7-0.3,1c0,0.4,0,0.8,0,1.1s0.1,0.6,0.3,0.8
	c0.2,0.3,0.5,0.5,0.8,0.7c0.7,0.3,1.3,0.6,2.1,0.5c0.1,0,0.3,0,0.4,0c0.3,0,0.7,0,1,0c0.5,0,1,0,1.5,0c0.2,0,0.5,0,0.7,0
	c0.4-0.2,0.7-0.1,1.1,0c0.2,0,0.3,0,0.5,0c0,0,0-0.1,0-0.2c0,0,0-0.2,0-0.3c0,0,0-0.2,0.1-0.3c0.1-0.4,0.2-0.8,0.4-1.1
	c0.2-0.2,0.2-0.5,0.3-0.8c0,0,0-0.3-0.1-0.3c0,0-0.3,0-0.4,0c-0.1,0-0.2,0.2-0.3,0.4c-0.2,0.3-0.5,0.5-0.7,0.8c0,0-0.2,0.1-0.3,0
	c-0.2,0-0.5-0.2-0.7-0.2c-0.1,0-0.3,0-0.4,0c-0.2,0.1-0.3,0.3-0.5,0.5c-0.3,0.3-0.4,0.9-1,1l0,0c-0.3,0.2-0.5,0.2-0.7,0
	C4.4,12.4,4.2,12,4,11.6c0,0,0,0,0-0.1c0-0.2,0-0.4,0-0.5s0-0.2,0-0.3s0-0.2,0-0.3c-0.2-0.3-0.1-0.5,0.1-0.8c0,0,0.1-0.2,0.1-0.4
	s0-0.4,0-0.5c0,0,0-0.1,0.1-0.1c0,0,0.1,0,0.2,0c0,0.2,0,0.3,0,0.5c0,0.4,0,0.8,0,1.2c0,0,0,0.1,0,0.2c0,0.3,0,0.5,0,0.8
	c0,0.1,0,0.3,0,0.4c0,0.1,0,0.3,0.1,0.4c0.4,0.2,1,0,1.2-0.4c0-0.2,0.1-0.3,0.4-0.4c0.2,0,0.4-0.2,0.5-0.4c0-0.3,0-0.6,0-0.9
	c0-0.3-0.2-0.5,0-0.7c0,0,0,0,0-0.1s0-0.3,0.2-0.4c0.2-0.3,0.2-0.4-0.1-0.5C6.4,8.2,5.9,8.1,5.5,8C5.4,8,5.2,8,5.1,7.9
	C5,7.7,4.8,7.4,4.8,7.2c0-0.3,0.2-0.6,0.5-0.8c0.2,0,0.3-0.1,0.4-0.3C6,5.8,6.2,5.6,6.4,5.3C6.7,5,6.9,4.7,7.3,4.6c0,0,0.1,0,0.2,0
	C7.7,4.4,8,4.2,8.2,4c0,0,0.1-0.1,0.2-0.2c0,0-0.1-0.2-0.2-0.3C7.6,3.2,7,3.1,6.3,3.1L6.6,2.6z M11,7c0,0,0.1,0,0.2-0.1
	c0.1-0.3,0.3-0.6,0.4-0.8c0-0.2,0.2-0.4,0.2-0.6S12,5.2,12,5.1c0.1-0.3,0.2-0.6,0.3-0.9c0-0.2,0.1-0.4,0.2-0.5
	c0.2-0.3,0.4-0.7,0.6-1c0,0,0,0,0-0.1c-0.1-0.4,0-0.8,0.3-1.1c0,0,0.1-0.3,0-0.4c0,0-0.3-0.2-0.4-0.1c-0.3,0-0.7,0.2-0.9,0.4
	C11.7,1.7,11.3,2,11,2.3c-0.2,0.1-0.4,0.2-0.5,0.3C10.3,2.7,10,2.9,9.8,3C9.6,3.1,9.5,3.3,9.7,3.5c0.2,0.3,0.4,0.6,0.6,0.9
	c0.3,0.6,0.3,1.2,0.4,1.8c0,0.3,0,0.5-0.1,0.8c-0.1,0.4,0,0.6,0.4,0.6c0,0,0.2,0,0.2-0.1V7.3L11,7z M10.1,5.7L10.1,5.7
	c0-0.3-0.2-0.5-0.2-0.7c0-0.4-0.2-0.7-0.4-1.1c-0.3-0.4-0.6-0.5-1-0.1c0,0-0.1,0.1-0.2,0.2C8,4.3,7.7,4.5,7.4,4.8
	c0,0-0.1,0.2-0.2,0.3c-0.3,0.3-0.7,0.7-1,1c0,0-0.2,0.2-0.2,0.3C5.9,6.6,6,6.9,6.2,6.9S6.7,6.9,7,7c0.4,0,0.7,0,0.9-0.4l0,0
	c0.1-0.2,0.3-0.2,0.5,0c0.2,0.1,0.1,0.3,0,0.4c-0.2,0.3,0,0.5,0.3,0.6c0.4,0,0.7,0,1.1,0c0.3,0,0.4-0.1,0.4-0.4c0-0.2,0-0.3,0-0.5
	c0-0.3-0.1-0.5-0.2-0.8L10.1,5.7z M11.3,8.3c-0.1,0-0.3,0.2-0.3,0.3c-0.2,0.4-0.3,0.8-0.4,1.1c-0.1,0.3-0.2,0.6-0.3,0.9
	c-0.2,0.6-0.3,1.1-0.5,1.7c0,0.3,0.1,0.5,0.4,0.3c0.5-0.2,0.9-0.4,1.4-0.6c0.1,0,0.2-0.1,0.3-0.2c0-0.2,0.2-0.3,0.4-0.2
	c0.2,0,0.3,0,0.3-0.2s0.1-0.2,0.2-0.2c0.4,0,0.4-0.2,0.4-0.5v-0.2c0.2,0,0.1-0.2,0.2-0.4c0.1-0.4-0.1-0.6-0.4-0.9
	c-0.2-0.2-0.4-0.3-0.7-0.4c-0.2-0.1-0.4-0.2-0.7-0.3c-0.1,0-0.2-0.1-0.4-0.2L11.3,8.3z M8.3,7.8c0,0-0.2,0.1-0.3,0.2
	C7.9,8.4,7.7,8.7,7.6,9.1c0,0.3-0.2,0.6,0,0.9c0.1,0.2,0.5,0.5,0.7,0.3c0.3-0.2,0.6-0.4,0.8-0.7C9.4,9.3,9.8,9,9.8,8.5l0,0
	C10,8.2,9.9,8,9.6,7.9C9.2,7.9,8.7,7.8,8.3,7.8L8.3,7.8z"/>
<path d="M32.1,7.7c-0.3,0-0.4,0-0.4-0.4l0,0c0-0.2,0-0.4,0.2-0.5c0.2-0.1,0.4,0,0.5,0.2c0,0,0.1,0,0.2,0.1c0.2,0.1,0.2,0.3,0,0.4
	C32.4,7.5,32.2,7.7,32.1,7.7z"/>
</svg>
